<?xml version="1.0" encoding="utf-8"?>
<!-- Generator: Adobe Illustrator 15.1.0, SVG Export Plug-In . SVG Version: 6.00 Build 0)  -->
<!DOCTYPE svg PUBLIC "-//W3C//DTD SVG 1.1//EN" "http://www.w3.org/Graphics/SVG/1.1/DTD/svg11.dtd">
<svg version="1.1" id="Layer_1" xmlns="http://www.w3.org/2000/svg" xmlns:xlink="http://www.w3.org/1999/xlink" x="0px" y="0px"
	 width="595.281px" height="841.89px" viewBox="0 0 595.281 841.89" enable-background="new 0 0 595.281 841.89"
	 xml:space="preserve">
<path fill="#000" stroke="none" d="M-3.295,1.729c0.843,0,1.588-1.269,1.588-1.269l0.319,0.18l-1.043,1.681l-2.935,1.342l3.119-1.124l1.081-1.805
	l0.635,0.243l-0.682,1.53l-1.866,1.167l2.156-1.031l0.635-1.618l0.541-0.149L1.25,2.742l2.041,0.383L1.406,2.546
	c0,0-0.908-1.874-0.899-1.891c0.158-0.124,0.26-0.221,0.26-0.221s0.273,0.78,1.316,0.806c0.58,0.018,1.014-0.366,1.295-0.707
	c0.009-0.017,0.626,1.167,0.626,1.167l1.357-0.217L4.072,1.508c0,0-0.6-1.107-0.583-1.132C3.638,0.165,3.707,0,3.707,0
	S3.638-0.166,3.49-0.367C3.473-0.392,4.073-1.5,4.073-1.5l1.291,0.017L4.006-1.7c0,0-0.618,1.185-0.626,1.167
	c-0.28-0.341-0.715-0.725-1.285-0.706C1.049-1.213,0.776-0.435,0.776-0.435s-0.111-0.099-0.26-0.212
	C0.5-0.674,1.406-2.548,1.406-2.548l1.892-0.575L1.258-2.73L0.252-0.873l-0.55-0.15l-0.635-1.618l-2.156-1.031l1.865,1.167
	l0.674,1.521l-0.639,0.242L-2.27-2.548l-3.096-1.115l2.935,1.341l1.043,1.692l-0.319,0.178c0,0-0.745-1.269-1.588-1.269
	c-1.521,0-1.649,1.636-1.649,1.722C-4.944,0-4.816,1.729-3.295,1.729z"/>
</svg>
